<?xml version="1.0" encoding="utf-8"?>
<!-- Generator: Adobe Illustrator 28.0.0, SVG Export Plug-In . SVG Version: 6.00 Build 0)  -->
<svg version="1.1" id="Layer_1" xmlns="http://www.w3.org/2000/svg" xmlns:xlink="http://www.w3.org/1999/xlink" x="0px" y="0px"
	 viewBox="0 0 72 72" style="enable-background:new 0 0 72 72;" xml:space="preserve">
<style type="text/css">
	.st0{fill:#603913;}
	.st1{fill:#BE1E2D;}
	.st2{fill:#D1D3D4;}
</style>
<path d="M30.16,26.49c0.3-0.07,0.6-0.15,0.89-0.23c1.53-0.39,4.53-1.15,4.95-1.15s3.42,0.76,4.95,1.15
	c0.29,0.08,0.59,0.16,0.89,0.23c4.01,0.97,9.03,1.04,9.03-5.11c0-2.52-2.21-4.75-5.51-4.75c-5.9-0.04-7.6,1.58-9.36,1.58
	s-3.09-1.41-9.36-1.58c-3.3,0-5.51,2.23-5.51,4.75C21.13,27.53,26.15,27.46,30.16,26.49z M43.06,24.66c-1.92,0-3.47-1.19-3.47-2.65
	c0-1.46,1.55-2.65,3.47-2.65s3.47,1.19,3.47,2.65C46.53,23.47,44.98,24.66,43.06,24.66z M28.94,19.36c1.92,0,3.47,1.19,3.47,2.65
	c0,1.46-1.55,2.65-3.47,2.65s-3.47-1.19-3.47-2.65C25.47,20.55,27.02,19.36,28.94,19.36z"/>
</svg>
