<?xml version="1.0" encoding="utf-8"?>
<!-- Generator: Adobe Illustrator 28.0.0, SVG Export Plug-In . SVG Version: 6.00 Build 0)  -->
<svg version="1.1" id="Layer_1" xmlns="http://www.w3.org/2000/svg" xmlns:xlink="http://www.w3.org/1999/xlink" x="0px" y="0px"
	 viewBox="0 0 72 72" style="enable-background:new 0 0 72 72;" xml:space="preserve">
<style type="text/css">
	.st0{fill:#FFFFFF;}
</style>
<rect width="72" height="72"/>
<g>
	<path class="st0" d="M46.06,57.82H25.94C13.94,57.82,4.12,48,4.12,36v0c0-12,9.82-21.82,21.82-21.82h20.11
		c12,0,21.82,9.82,21.82,21.82v0C67.88,48,58.06,57.82,46.06,57.82z"/>
</g>
<path class="st0" d="M45.82,54.16c2.62,5.09,11.36,10.14,18.62,9.99c-6.26-10.04-5.62-14.26-5.62-14.26L45.82,54.16z"/>
<g>
	<g>
		<path d="M16.49,20.85L36,54.64l19.51-33.77H16.49V20.85z M51.11,23.38L36,49.57L20.89,23.41h30.22L51.11,23.38L51.11,23.38z"/>
	</g>
	<polygon points="47.67,25.52 36,45.71 24.33,25.52 28.73,25.52 36,38.13 43.27,25.52 	"/>
</g>
</svg>
