<?xml version="1.0" encoding="utf-8"?>
<!-- Generator: Adobe Illustrator 28.0.0, SVG Export Plug-In . SVG Version: 6.00 Build 0)  -->
<svg version="1.1" xmlns="http://www.w3.org/2000/svg" xmlns:xlink="http://www.w3.org/1999/xlink" x="0px" y="0px"
	 viewBox="0 0 1094.25 1094.13" style="enable-background:new 0 0 1094.25 1094.13;" xml:space="preserve">
<style type="text/css">
	.st0{display:none;}
	.st1{display:inline;}
	.st2{fill:#FFFFFF;}
	.st3{font-family:'Orbitron-Bold';}
	.st4{font-size:20.2121px;}
	.st5{fill:#231F20;}
	.st6{font-size:32px;}
	.st7{fill:#6D6E70;}
	.st8{fill:#BBBDBF;stroke:#E6E7E8;stroke-width:4;stroke-miterlimit:10;stroke-dasharray:2;}
	.st9{fill:#00A551;stroke:#D0D2D3;stroke-width:21;stroke-miterlimit:10;}
	.st10{fill:#FFF100;stroke:#D0D2D3;stroke-width:21;stroke-miterlimit:10;}
	.st11{fill:#00A551;stroke:#231F20;stroke-miterlimit:10;}
	.st12{fill:#26A9E0;stroke:#231F20;stroke-miterlimit:10;}
	.st13{fill:#8A5D3B;stroke:#D0D2D3;stroke-width:21;stroke-miterlimit:10;}
	.st14{fill:#8A5D3B;stroke:#231F20;stroke-miterlimit:10;}
	.st15{fill:#A87C4F;stroke:#231F20;stroke-miterlimit:10;}
	.st16{fill:none;stroke:#231F20;stroke-miterlimit:10;}
	.st17{fill:#A6A8AB;stroke:#231F20;stroke-miterlimit:10;}
	.st18{fill:#6D6E70;stroke:#231F20;stroke-miterlimit:10;}
	.st19{fill:#C3996B;stroke:#231F20;stroke-miterlimit:10;}
	.st20{fill:#009345;stroke:#231F20;stroke-miterlimit:10;}
	.st21{fill:#929497;stroke:#231F20;stroke-miterlimit:10;}
	.st22{fill:#808184;}
	.st23{fill:#929497;}
	.st24{fill:#58595B;}
	.st25{fill:none;stroke:#FFF100;stroke-width:2;stroke-miterlimit:10;}
	.st26{fill:none;stroke:#FFF100;stroke-width:2;stroke-miterlimit:10;stroke-dasharray:5.0672,5.0672;}
	.st27{fill:none;stroke:#FFF100;stroke-width:2;stroke-miterlimit:10;stroke-dasharray:5;}
</style>
<g id="Layer_2" class="st0">
	<text transform="matrix(1 0 0 1 158.5957 218.1504)" class="st1"><tspan x="0" y="0" class="st2 st3 st4">Warehouse</tspan><tspan x="-8" y="24.25" class="st2 st3 st4">by the Docks</tspan></text>
	<text transform="matrix(1 0 0 1 446.6577 902.6902)" class="st1"><tspan x="0" y="0" class="st5 st3 st6">Abandoned</tspan><tspan x="12.16" y="38.4" class="st5 st3 st6">Funhouse</tspan></text>
	<text transform="matrix(1 0 0 1 89.4349 902.6901)" class="st1"><tspan x="0" y="0" class="st5 st3 st6">The World</tspan><tspan x="41.14" y="38.4" class="st5 st3 st6">News</tspan></text>
	<text transform="matrix(1 0 0 1 451.3786 134.7947)" class="st1"><tspan x="0" y="0" class="st5 st3 st6">Labratory </tspan><tspan x="73.2" y="38.4" class="st5 st3 st6">of </tspan><tspan x="23.98" y="76.8" class="st5 st3 st6">Bizarre </tspan><tspan x="8.51" y="115.2" class="st5 st3 st6">Research</tspan></text>
	<text transform="matrix(1 0 0 1 471.1364 537.9401)" class="st1"><tspan x="0" y="0" class="st5 st3 st6">Jewelry</tspan><tspan x="25.7" y="38.4" class="st5 st3 st6">Store</tspan></text>
	<text transform="matrix(1 0 0 1 837.9145 902.6901)" class="st1"><tspan x="0" y="0" class="st5 st3 st6">Grocery</tspan><tspan x="33.01" y="38.4" class="st5 st3 st6">Mart</tspan></text>
	<text transform="matrix(1 0 0 1 867.2966 537.9401)" class="st1"><tspan x="0" y="0" class="st5 st3 st6">Tech</tspan><tspan x="-14.61" y="38.4" class="st5 st3 st6">Tower</tspan></text>
	<text transform="matrix(1 0 0 1 853.6904 173.1953)" class="st1"><tspan x="0" y="0" class="st5 st3 st6">Mystic</tspan><tspan x="2.02" y="38.4" class="st5 st3 st6">Manor</tspan></text>
</g>
<g id="Layer_1">
	<rect x="0.22" y="-0.07" class="st7" width="1094.25" height="1094.25"/>
	<line class="st8" x1="1036.53" y1="-0.07" x2="1036.53" y2="51.08"/>
	<line class="st8" x1="1043.32" y1="58.18" x2="1094.69" y2="58.18"/>
	<line class="st8" x1="678.79" y1="58.1" x2="781.08" y2="58.1"/>
	<line class="st8" x1="788.11" y1="-0.07" x2="788.11" y2="51.08"/>
	<line class="st8" x1="671.34" y1="-0.07" x2="671.34" y2="51.08"/>
	<line class="st8" x1="58.92" y1="1044.06" x2="58.92" y2="1095.21"/>
	<line class="st8" x1="306.83" y1="1043.03" x2="306.83" y2="1094.18"/>
	<line class="st8" x1="423.51" y1="1044.06" x2="423.51" y2="1095.21"/>
	<line class="st8" x1="671.43" y1="1043.03" x2="671.43" y2="1094.18"/>
	<line class="st8" x1="788.36" y1="1043.03" x2="788.36" y2="1094.18"/>
	<line class="st8" x1="1036.28" y1="1043.03" x2="1036.28" y2="1094.18"/>
	<line class="st8" x1="1036.28" y1="313.53" x2="1036.28" y2="415.83"/>
	<line class="st8" x1="787.98" y1="313.53" x2="787.98" y2="415.83"/>
	<line class="st8" x1="671.92" y1="313.53" x2="671.92" y2="415.83"/>
	<line class="st8" x1="423.77" y1="313.53" x2="423.77" y2="415.83"/>
	<line class="st8" x1="306.83" y1="313.53" x2="306.83" y2="415.83"/>
	<line class="st8" x1="306.83" y1="678.14" x2="306.83" y2="780.44"/>
	<line class="st8" x1="423.51" y1="678.28" x2="423.51" y2="780.58"/>
	<line class="st8" x1="1036.45" y1="678.28" x2="1036.45" y2="780.58"/>
	<line class="st8" x1="788.28" y1="678.28" x2="788.28" y2="780.58"/>
	<line class="st8" x1="671.16" y1="678.32" x2="671.16" y2="780.61"/>
	<line class="st8" x1="0.83" y1="787.97" x2="51.98" y2="787.97"/>
	<line class="st8" x1="0.44" y1="1035.46" x2="51.59" y2="1035.46"/>
	<line class="st8" x1="314.04" y1="1035.8" x2="416.33" y2="1035.8"/>
	<line class="st8" x1="678.79" y1="1035.46" x2="781.08" y2="1035.46"/>
	<line class="st8" x1="1043.67" y1="1035.39" x2="1094.58" y2="1035.39"/>
	<line class="st8" x1="1042.1" y1="788.22" x2="1094.32" y2="788.22"/>
	<line class="st8" x1="1041.97" y1="670.64" x2="1094.18" y2="670.64"/>
	<line class="st8" x1="1043.56" y1="423.47" x2="1094.32" y2="423.47"/>
	<line class="st8" x1="1043.43" y1="305.89" x2="1094.19" y2="305.89"/>
	<line class="st8" x1="314.14" y1="788.23" x2="416.44" y2="788.23"/>
	<line class="st8" x1="313.93" y1="670.65" x2="416.23" y2="670.65"/>
	<line class="st8" x1="678.91" y1="788.23" x2="781.21" y2="788.23"/>
	<line class="st8" x1="678.69" y1="670.65" x2="780.99" y2="670.65"/>
	<line class="st8" x1="314.14" y1="423.47" x2="416.44" y2="423.47"/>
	<line class="st8" x1="313.93" y1="305.89" x2="416.23" y2="305.89"/>
	<line class="st8" x1="679" y1="423.48" x2="781.3" y2="423.48"/>
	<line class="st8" x1="678.79" y1="305.9" x2="781.08" y2="305.9"/>
	<polygon class="st9" points="243.61,425.49 304.41,425.49 304.41,668.66 122.02,668.65 122.02,547.07 243.61,547.07 	"/>
	<g>
		<rect x="425.76" y="60.73" class="st10" width="243.17" height="243.17"/>
		<rect x="790.51" y="60.73" class="st10" width="243.16" height="243.17"/>
		<rect x="425.76" y="425.48" class="st10" width="243.17" height="243.16"/>
		<rect x="790.51" y="425.48" class="st10" width="243.16" height="243.16"/>
		<rect x="425.76" y="790.23" class="st10" width="243.17" height="243.16"/>
		<rect x="790.51" y="790.23" class="st10" width="243.16" height="243.16"/>
		<rect x="61.02" y="790.23" class="st10" width="243.16" height="243.16"/>
	</g>
	<polygon class="st11" points="243.61,425.48 304.41,425.48 304.41,668.65 122.02,668.65 122.02,547.07 243.61,547.07 	"/>
	<polygon class="st12" points="122.28,60.64 122.28,425.39 243.86,425.39 243.86,546.98 122.28,546.98 122.28,668.56 0.7,668.56 
		0.7,-0.13 122.28,-0.13 122.28,-0.16 304.66,-0.16 304.66,60.64 	"/>
	<rect x="144.68" y="144.18" class="st13" width="159.71" height="159.71"/>
	<rect x="144.69" y="144.18" class="st14" width="159.71" height="159.71"/>
	<rect x="122.02" y="243.1" class="st15" width="0.02" height="21.38"/>
	<rect x="182.82" y="789.67" class="st16" width="122.14" height="122.14"/>
	<rect x="425.98" y="60.73" class="st17" width="243.17" height="243.17"/>
	<rect x="790.73" y="60.73" class="st17" width="243.16" height="243.17"/>
	<rect x="425.98" y="425.48" class="st17" width="243.17" height="243.16"/>
	<rect x="790.74" y="425.48" class="st17" width="243.16" height="243.16"/>
	<rect x="425.98" y="790.23" class="st17" width="243.17" height="243.16"/>
	<rect x="790.73" y="790.23" class="st17" width="243.16" height="243.16"/>
	<rect x="61.24" y="790.23" class="st17" width="243.16" height="243.16"/>
	<rect x="182.81" y="364.68" class="st18" width="60.8" height="60.81"/>
	<rect x="61.25" y="668.66" class="st18" width="60.8" height="60.81"/>
	<g>
		
			<rect x="198.77" y="102.78" transform="matrix(0.9588 -0.284 0.284 0.9588 -23.3303 63.7929)" class="st19" width="19.15" height="19.15"/>
		<polygon class="st19" points="219.78,117.26 220.24,118.82 218.69,119.28 196.9,107.45 196.44,105.9 198.01,105.43 		"/>
		<polygon class="st19" points="214.81,100.46 215.27,102.02 209.9,111.89 208.81,113.91 203.44,123.8 201.88,124.26 201.42,122.7 
			206.78,112.81 207.89,110.8 213.24,100.92 		"/>
		
			<rect x="194.77" y="101.9" transform="matrix(0.9588 -0.284 0.284 0.9588 -20.835 62.6427)" class="st19" width="21.71" height="2.56"/>
		
			<rect x="200.21" y="120.26" transform="matrix(0.9588 -0.284 0.284 0.9588 -25.8255 64.9431)" class="st19" width="21.71" height="2.56"/>
		
			<rect x="216.24" y="98.78" transform="matrix(0.9588 -0.284 0.284 0.9588 -22.1801 66.2882)" class="st19" width="2.56" height="21.71"/>
		
			<rect x="197.88" y="104.22" transform="matrix(0.9588 -0.284 0.284 0.9588 -24.4805 61.2977)" class="st19" width="2.56" height="21.71"/>
	</g>
	<g>
		
			<rect x="227.44" y="101.09" transform="matrix(0.4093 -0.9124 0.9124 0.4093 39.0309 281.6213)" class="st19" width="19.15" height="19.15"/>
		<polygon class="st19" points="242.5,121.83 241.83,123.32 240.36,122.66 231.54,99.49 232.2,98.01 233.69,98.68 		"/>
		<polygon class="st19" points="249.67,105.85 249.01,107.34 238.5,111.33 236.36,112.15 225.84,116.15 224.36,115.48 
			225.03,114.01 235.54,110 237.69,109.19 248.19,105.18 		"/>
		
			<rect x="239.66" y="91.08" transform="matrix(0.4093 -0.9124 0.9124 0.4093 49.3167 280.0369)" class="st19" width="2.56" height="21.71"/>
		
			<rect x="231.82" y="108.55" transform="matrix(0.4093 -0.9124 0.9124 0.4093 28.7451 283.2057)" class="st19" width="2.56" height="21.71"/>
		
			<rect x="234.9" y="113.31" transform="matrix(0.4093 -0.9124 0.9124 0.4093 40.6154 291.9071)" class="st19" width="21.71" height="2.56"/>
		
			<rect x="217.43" y="105.47" transform="matrix(0.4093 -0.9124 0.9124 0.4093 37.4465 271.3355)" class="st19" width="21.71" height="2.56"/>
	</g>
	<g>
		<rect x="213.1" y="102.78" class="st19" width="19.15" height="19.15"/>
		<polygon class="st19" points="232.25,120.3 232.25,121.93 230.63,121.93 213.1,104.4 213.1,102.78 214.73,102.78 		"/>
		<polygon class="st19" points="232.25,102.78 232.25,104.41 224.3,112.35 222.68,113.98 214.72,121.93 213.1,121.93 213.1,120.31 
			221.05,112.35 222.68,110.73 230.62,102.78 		"/>
		<rect x="211.82" y="101.5" class="st19" width="21.71" height="2.56"/>
		<rect x="211.82" y="120.65" class="st19" width="21.71" height="2.56"/>
		<rect x="230.97" y="101.5" class="st19" width="2.56" height="21.71"/>
		<rect x="211.82" y="101.5" class="st19" width="2.56" height="21.71"/>
	</g>
	<g>
		
			<rect x="268.82" y="101.73" transform="matrix(0.8443 -0.5359 0.5359 0.8443 -16.2981 166.5069)" class="st19" width="19.15" height="19.15"/>
		<polygon class="st19" points="290.73,112.88 291.61,114.25 290.24,115.12 266.05,109.72 265.18,108.35 266.55,107.47 		"/>
		<polygon class="st19" points="281.35,98.09 282.22,99.46 279.76,110.43 279.27,112.67 276.81,123.65 275.44,124.52 274.57,123.15 
			277.02,112.17 277.53,109.93 279.97,98.96 		"/>
		
			<rect x="262.41" y="101.94" transform="matrix(0.8443 -0.5359 0.5359 0.8443 -12.765 162.4988)" class="st19" width="21.71" height="2.56"/>
		
			<rect x="272.67" y="118.11" transform="matrix(0.8443 -0.5359 0.5359 0.8443 -19.8313 170.5149)" class="st19" width="21.71" height="2.56"/>
		
			<rect x="285.2" y="95.32" transform="matrix(0.8443 -0.5359 0.5359 0.8443 -12.2901 170.04)" class="st19" width="2.56" height="21.71"/>
		
			<rect x="269.03" y="105.58" transform="matrix(0.8443 -0.5359 0.5359 0.8443 -20.3062 162.9737)" class="st19" width="2.56" height="21.71"/>
	</g>
	<g>
		
			<rect x="268.82" y="101.09" transform="matrix(0.9588 -0.284 0.284 0.9588 -19.9659 83.6159)" class="st19" width="19.15" height="19.15"/>
		<polygon class="st19" points="289.83,115.57 290.29,117.13 288.74,117.59 266.95,105.76 266.49,104.2 268.05,103.74 		"/>
		<polygon class="st19" points="284.85,98.77 285.32,100.33 279.95,110.2 278.86,112.22 273.48,122.11 271.93,122.57 271.47,121.01 
			276.83,111.12 277.94,109.11 283.29,99.23 		"/>
		
			<rect x="264.82" y="100.21" transform="matrix(0.9588 -0.284 0.284 0.9588 -17.4706 82.4657)" class="st19" width="21.71" height="2.56"/>
		
			<rect x="270.26" y="118.57" transform="matrix(0.9588 -0.284 0.284 0.9588 -22.4611 84.7661)" class="st19" width="21.71" height="2.56"/>
		
			<rect x="286.29" y="97.09" transform="matrix(0.9588 -0.284 0.284 0.9588 -18.8157 86.1112)" class="st19" width="2.56" height="21.71"/>
		
			<rect x="267.93" y="102.53" transform="matrix(0.9588 -0.284 0.284 0.9588 -21.116 81.1207)" class="st19" width="2.56" height="21.71"/>
	</g>
	<path class="st20" d="M289.39,462.74c0,4.35-2.65,7.87-5.9,7.87c-1.16,0-2.25-0.45-3.17-1.22c-1.44,0.88-3.24,1.52-5.25,1.82
		c-0.89,1.13-2.26,1.86-3.81,1.86c-1.8,0-3.37-0.99-4.2-2.45c-3.78-1.23-6.37-3.75-6.37-6.66c0-0.83,0.21-1.64,0.62-2.38
		c-0.35-0.76-0.62-1.55-0.81-2.39c-1.11-0.53-1.98-1.32-2.5-2.36c-1.12-2.2-0.45-4.99,1.5-7.51c-0.02-0.2-0.03-0.4-0.03-0.6
		c0-3.26,2.65-5.9,5.9-5.9c1.08,0,2.09,0.29,2.95,0.79c4.37-1.2,8.47-0.39,10.17,2.22c1.05-1.66,2.9-2.76,5-2.76
		c3.26,0,5.9,2.65,5.9,5.9c0,2.97-2.19,5.43-5.04,5.84c0.01,0.05,0.01,0.1,0.02,0.15C287.2,455.53,289.39,458.8,289.39,462.74z"/>
	<path class="st20" d="M213.32,564.42c4.17,1.22,6.81,4.76,5.89,7.88c-0.33,1.12-1.06,2.03-2.06,2.69c0.44,1.63,0.54,3.54,0.27,5.55
		c0.84,1.17,1.14,2.69,0.71,4.18c-0.51,1.73-1.9,2.96-3.53,3.34c-2.25,3.28-5.39,5.06-8.18,4.24c-0.8-0.24-1.51-0.66-2.11-1.26
		c-0.83,0.13-1.67,0.16-2.52,0.1c-0.82,0.92-1.83,1.53-2.97,1.74c-2.42,0.45-4.91-0.97-6.78-3.55c-0.2-0.04-0.39-0.08-0.59-0.14
		c-3.13-0.92-4.92-4.2-4-7.32c0.3-1.04,0.86-1.92,1.59-2.61c0.08-4.53,2.01-8.24,4.99-9.13c-1.3-1.47-1.83-3.56-1.24-5.58
		c0.92-3.12,4.2-4.92,7.32-4c2.85,0.84,4.59,3.63,4.18,6.48c0.05,0.01,0.1,0.01,0.15,0.02
		C205.78,564.48,209.53,563.31,213.32,564.42z"/>
	<path class="st20" d="M168.88,574.18c2.32-3.68,6.44-5.24,9.19-3.5c0.98,0.62,1.66,1.58,2.03,2.72c1.69,0.03,3.55,0.45,5.41,1.26
		c1.35-0.48,2.9-0.36,4.21,0.46c1.52,0.96,2.32,2.64,2.24,4.31c2.54,3.06,3.38,6.57,1.83,9.03c-0.45,0.71-1.05,1.27-1.79,1.69
		c-0.11,0.83-0.3,1.65-0.59,2.45c0.65,1.04,0.97,2.17,0.86,3.34c-0.23,2.45-2.28,4.46-5.27,5.55c-0.09,0.18-0.19,0.35-0.3,0.53
		c-1.74,2.76-5.39,3.58-8.14,1.84c-0.91-0.58-1.61-1.36-2.08-2.25c-4.34-1.32-7.37-4.19-7.41-7.3c-1.77,0.84-3.92,0.79-5.7-0.34
		c-2.75-1.74-3.58-5.39-1.84-8.14c1.58-2.51,4.75-3.42,7.38-2.24c0.02-0.05,0.04-0.09,0.06-0.14
		C166.87,581.44,166.77,577.51,168.88,574.18z"/>
	<path class="st20" d="M158.11,659.14c-4.28,0.76-8.22-1.23-8.79-4.43c-0.2-1.14,0.05-2.29,0.65-3.33
		c-1.12-1.27-2.06-2.93-2.72-4.85c-1.27-0.67-2.22-1.9-2.49-3.42c-0.32-1.77,0.38-3.49,1.67-4.56c0.55-3.94,2.58-6.93,5.44-7.44
		c0.82-0.15,1.65-0.08,2.45,0.19c0.68-0.48,1.42-0.89,2.21-1.22c0.33-1.19,0.96-2.18,1.89-2.88c1.97-1.49,4.83-1.32,7.65,0.16
		c0.19-0.05,0.39-0.1,0.59-0.14c3.21-0.57,6.27,1.57,6.84,4.78c0.19,1.06,0.08,2.11-0.26,3.05c1.95,4.1,1.87,8.27-0.4,10.4
		c1.81,0.74,3.23,2.37,3.6,4.44c0.57,3.21-1.57,6.27-4.78,6.84c-2.92,0.52-5.73-1.21-6.63-3.94c-0.05,0.02-0.09,0.03-0.14,0.04
		C164.83,655.73,161.99,658.45,158.11,659.14z"/>
	<path class="st20" d="M241.65,644.21c-2.59-3.49-2.57-7.9,0.04-9.84c0.93-0.69,2.07-0.98,3.27-0.91c0.63-1.57,1.7-3.15,3.12-4.59
		c0.04-1.44,0.71-2.84,1.95-3.76c1.44-1.07,3.3-1.22,4.83-0.54c3.77-1.27,7.35-0.79,9.09,1.54c0.5,0.67,0.81,1.44,0.93,2.28
		c0.74,0.4,1.43,0.88,2.07,1.43c1.21-0.23,2.38-0.12,3.42,0.4c2.21,1.1,3.34,3.74,3.28,6.92c0.13,0.15,0.26,0.3,0.39,0.47
		c1.95,2.62,1.4,6.31-1.22,8.26c-0.87,0.64-1.85,1.01-2.84,1.13c-2.79,3.57-6.56,5.37-9.48,4.29c0.15,1.95-0.68,3.94-2.37,5.2
		c-2.61,1.94-6.31,1.4-8.26-1.22c-1.77-2.38-1.48-5.66,0.56-7.69c-0.04-0.04-0.07-0.07-0.1-0.11
		C247.71,648.7,244,647.38,241.65,644.21z"/>
	<rect x="122.02" y="203.68" class="st15" width="0.02" height="21.38"/>
	<rect x="122.02" y="164.26" class="st15" width="0.02" height="21.38"/>
	<polygon class="st15" points="122.02,282.52 122.04,282.52 122.04,303.9 61.24,303.9 61.24,282.52 100.64,282.52 100.64,264.48 
		61.24,264.48 61.24,243.1 100.64,243.1 100.64,225.06 61.24,225.06 61.24,203.68 100.64,203.68 100.64,185.64 61.24,185.65 
		61.24,164.26 100.64,164.26 100.64,146.22 61.24,146.23 61.24,124.85 122.04,124.85 122.04,146.22 122.02,146.22 	"/>
	<path class="st21" d="M82.57,280.25H65.05v-12.89h17.52c0,0,5.57-0.08,13.28,6.44C88.14,280.33,82.57,280.25,82.57,280.25z"/>
	<path class="st22" d="M68.49,274.27v-0.94c0-2.22,1.82-4.04,4.04-4.04h5.74c2.22,0,4.04,1.82,4.04,4.04v0.94
		c0,2.22-1.82,4.04-4.04,4.04h-5.74C70.31,278.32,68.49,276.5,68.49,274.27z"/>
	<ellipse class="st23" cx="78.57" cy="273.81" rx="2.71" ry="2.29"/>
	<ellipse class="st24" cx="78.57" cy="273.81" rx="2.07" ry="1.75"/>
	<ellipse class="st23" cx="72.35" cy="273.81" rx="2.71" ry="2.29"/>
	<ellipse class="st24" cx="72.35" cy="273.81" rx="2.07" ry="1.75"/>
	<path class="st21" d="M83.75,240.73H66.23v-12.89h17.52c0,0,5.57-0.08,13.28,6.44C89.31,240.81,83.75,240.73,83.75,240.73z"/>
	<path class="st22" d="M69.67,234.76v-0.94c0-2.22,1.82-4.04,4.04-4.04h5.74c2.22,0,4.04,1.82,4.04,4.04v0.94
		c0,2.22-1.82,4.04-4.04,4.04h-5.74C71.49,238.8,69.67,236.98,69.67,234.76z"/>
	<ellipse class="st23" cx="79.74" cy="234.29" rx="2.71" ry="2.29"/>
	<ellipse class="st24" cx="79.74" cy="234.29" rx="2.07" ry="1.75"/>
	<ellipse class="st23" cx="73.52" cy="234.29" rx="2.71" ry="2.29"/>
	<ellipse class="st24" cx="73.52" cy="234.29" rx="2.07" ry="1.75"/>
	<path class="st21" d="M84.59,161.69H67.07V148.8h17.52c0,0,5.57-0.08,13.28,6.44C90.15,161.77,84.59,161.69,84.59,161.69z"/>
	<path class="st22" d="M70.51,155.72v-0.94c0-2.22,1.82-4.04,4.04-4.04h5.74c2.22,0,4.04,1.82,4.04,4.04v0.94
		c0,2.22-1.82,4.04-4.04,4.04h-5.74C72.33,159.76,70.51,157.94,70.51,155.72z"/>
	<ellipse class="st23" cx="80.59" cy="155.25" rx="2.71" ry="2.29"/>
	<ellipse class="st24" cx="80.59" cy="155.25" rx="2.07" ry="1.75"/>
	<ellipse class="st23" cx="74.36" cy="155.25" rx="2.71" ry="2.29"/>
	<ellipse class="st24" cx="74.36" cy="155.25" rx="2.07" ry="1.75"/>
	<path class="st21" d="M289.93-0.16c-65.12,49.24-110.59,48.58-110.59,48.58H12.27V-0.13h110.01v-0.03H289.93z"/>
	<path class="st22" d="M176.91-0.16v26.09c0,2.23-1.82,4.04-4.05,4.04H49.08c-2.23,0-4.05-1.81-4.05-4.04V-0.13h77.25v-0.03H176.91z
		"/>
	<path class="st23" d="M161.98-0.16c-4.69,5.42-12.27,8.94-20.83,8.94c-8.54,0-16.12-3.51-20.81-8.91h1.94v-0.03H161.98z"/>
	<path class="st24" d="M153.72-0.16c-3.42,2.38-7.8,3.81-12.57,3.81c-4.77,0-9.15-1.43-12.57-3.81H153.72z"/>
	<path class="st23" d="M102.62-0.13c-4.69,5.4-12.27,8.91-20.81,8.91S65.69,5.27,61-0.13H102.62z"/>
	<path class="st24" d="M94.33-0.13c-3.41,2.36-7.77,3.78-12.52,3.78S72.7,2.23,69.29-0.13H94.33z"/>
	<g>
		<g>
			<line class="st25" x1="426" y1="364.68" x2="428.5" y2="364.68"/>
			<line class="st26" x1="433.56" y1="364.68" x2="664.12" y2="364.68"/>
			<line class="st25" x1="666.66" y1="364.68" x2="669.16" y2="364.68"/>
		</g>
	</g>
	<line class="st27" x1="729.94" y1="425.48" x2="729.94" y2="668.65"/>
	<line class="st27" x1="790.75" y1="364.68" x2="1033.91" y2="364.68"/>
	<line class="st27" x1="790.75" y1="729.43" x2="1033.91" y2="729.43"/>
	<line class="st27" x1="729.94" y1="790.23" x2="729.94" y2="1033.4"/>
	<line class="st27" x1="669.16" y1="729.43" x2="426" y2="729.43"/>
	<line class="st27" x1="365.19" y1="790.23" x2="365.19" y2="1033.4"/>
	<line class="st27" x1="304.41" y1="729.43" x2="61.25" y2="729.43"/>
	<line class="st27" x1="365.19" y1="668.65" x2="365.19" y2="425.48"/>
	<line class="st27" x1="729.94" y1="303.9" x2="729.94" y2="60.73"/>
	<g>
		<path class="st2" d="M182.75,203.59l-5.3,14.56h-2.1l-3.78-10.33c-1.23,3.4-2.57,6.96-3.78,10.33h-2.08l-5.3-14.56h2.83l3.52,9.6
			l3.52-9.6h2.61l3.52,9.6l3.52-9.6H182.75z"/>
		<path class="st2" d="M195.46,209.21v8.94h-9.12c-1.54,0-2.79-1.25-2.79-2.79v-4.41h9.26v-1.74c0-0.08-0.06-0.14-0.14-0.14h-9.12
			v-2.65h9.12C194.2,206.42,195.46,207.68,195.46,209.21z M192.81,213.62h-6.61v1.74c0,0.08,0.06,0.14,0.14,0.14h6.47V213.62z"/>
		<path class="st2" d="M206.53,206.42v2.65h-6.51c-0.08,0-0.14,0.06-0.14,0.14v8.94h-2.65v-8.94c0-1.54,1.25-2.79,2.79-2.79H206.53z
			"/>
		<path class="st2" d="M219.79,209.21v4.41h-9.26v1.74c0,0.08,0.06,0.14,0.14,0.14h9.12v2.65h-9.12c-1.54,0-2.79-1.25-2.79-2.79
			v-6.15c0-1.54,1.25-2.79,2.79-2.79H217C218.54,206.42,219.79,207.68,219.79,209.21z M217.14,210.95v-1.74
			c0-0.08-0.06-0.14-0.14-0.14h-6.33c-0.08,0-0.14,0.06-0.14,0.14v1.74H217.14z"/>
		<path class="st2" d="M233.84,209.21v8.94h-2.65v-8.94c0-0.08-0.06-0.14-0.14-0.14h-6.33c-0.08,0-0.14,0.06-0.14,0.14v8.94h-2.65
			v-15.57h2.65v3.84h6.47C232.56,206.42,233.84,207.68,233.84,209.21z"/>
		<path class="st2" d="M244.49,206.42c1.54,0,2.79,1.25,2.79,2.79v6.15c0,1.54-1.25,2.79-2.79,2.79h-6.33
			c-1.54,0-2.79-1.25-2.79-2.79v-6.15c0-1.54,1.25-2.79,2.79-2.79H244.49z M238.16,209.07c-0.08,0-0.14,0.06-0.14,0.14v6.15
			c0,0.08,0.06,0.14,0.14,0.14h6.33c0.08,0,0.14-0.06,0.14-0.14v-6.15c0-0.08-0.06-0.14-0.14-0.14H238.16z"/>
		<path class="st2" d="M260.8,206.42v8.94c0,1.54-1.25,2.79-2.79,2.79h-6.33c-1.56,0-2.79-1.25-2.79-2.79v-8.94h2.65v8.94
			c0,0.08,0.06,0.14,0.14,0.14h6.33c0.08,0,0.14-0.06,0.14-0.14v-8.94H260.8z"/>
		<path class="st2" d="M274.65,209.72H272v-0.51c0-0.08-0.06-0.14-0.14-0.14h-6.33c-0.08,0-0.14,0.06-0.14,0.14v1.62
			c0,0.08,0.06,0.12,0.14,0.12h6.33c1.56,0,2.79,1.25,2.79,2.79v1.62c0,1.54-1.23,2.79-2.79,2.79h-6.33c-1.54,0-2.79-1.25-2.79-2.79
			v-0.51h2.65v0.51c0,0.08,0.06,0.14,0.14,0.14h6.33c0.08,0,0.14-0.06,0.14-0.14v-1.62c0-0.08-0.06-0.12-0.14-0.12h-6.33
			c-1.54,0-2.79-1.25-2.79-2.79v-1.62c0-1.54,1.25-2.79,2.79-2.79h6.33c1.56,0,2.79,1.25,2.79,2.79V209.72z"/>
		<path class="st2" d="M288.35,209.21v4.41h-9.26v1.74c0,0.08,0.06,0.14,0.14,0.14h9.12v2.65h-9.12c-1.54,0-2.79-1.25-2.79-2.79
			v-6.15c0-1.54,1.25-2.79,2.79-2.79h6.33C287.1,206.42,288.35,207.68,288.35,209.21z M285.7,210.95v-1.74
			c0-0.08-0.06-0.14-0.14-0.14h-6.33c-0.08,0-0.14,0.06-0.14,0.14v1.74H285.7z"/>
		<path class="st2" d="M163.86,233.47v6.15c0,1.54-1.25,2.79-2.79,2.79h-9.12v-15.57h2.65v3.84h6.47
			C162.61,230.68,163.86,231.93,163.86,233.47z M161.22,233.47c0-0.08-0.06-0.14-0.14-0.14h-6.33c-0.08,0-0.14,0.06-0.14,0.14v6.15
			c0,0.08,0.06,0.14,0.14,0.14h6.33c0.08,0,0.14-0.06,0.14-0.14V233.47z"/>
		<path class="st2" d="M174.33,247.05h-7.18v-2.67h7.18c0.06,0,0.12-0.04,0.12-0.12v-1.86h-6.47c-1.54,0-2.79-1.25-2.79-2.79v-8.9
			h2.65v8.9c0,0.08,0.06,0.14,0.14,0.14h6.35c0.06,0,0.12-0.06,0.12-0.14v-8.9h2.65v13.55C177.1,245.8,175.87,247.05,174.33,247.05z
			"/>
		<path class="st2" d="M188.14,233.33v6.29c0,0.08,0.06,0.14,0.14,0.14h4.43v2.65h-4.43c-1.56,0-2.79-1.25-2.79-2.79v-12.78h2.65
			v3.84h4.57v2.65H188.14z"/>
		<path class="st2" d="M206.25,233.47v8.94h-2.65v-8.94c0-0.08-0.06-0.14-0.14-0.14h-6.33c-0.08,0-0.14,0.06-0.14,0.14v8.94h-2.65
			v-15.57h2.65v3.84h6.47C204.98,230.68,206.25,231.93,206.25,233.47z"/>
		<path class="st2" d="M219.69,233.47v4.41h-9.26v1.74c0,0.08,0.06,0.14,0.14,0.14h9.12v2.65h-9.12c-1.54,0-2.79-1.25-2.79-2.79
			v-6.15c0-1.54,1.25-2.79,2.79-2.79h6.33C218.44,230.68,219.69,231.93,219.69,233.47z M217.04,235.21v-1.74
			c0-0.08-0.06-0.14-0.14-0.14h-6.33c-0.08,0-0.14,0.06-0.14,0.14v1.74H217.04z"/>
		<path class="st2" d="M239.86,227.85c1.56,0,2.83,1.25,2.83,2.81v8.94c0,1.56-1.27,2.81-2.83,2.81h-11.73v-14.56H239.86z
			 M240,230.66c0-0.08-0.06-0.14-0.14-0.14h-8.92c-0.08,0-0.14,0.06-0.14,0.14v8.94c0,0.08,0.06,0.14,0.14,0.14h8.92
			c0.08,0,0.14-0.06,0.14-0.14V230.66z"/>
		<path class="st2" d="M253.97,230.68c1.54,0,2.79,1.25,2.79,2.79v6.15c0,1.54-1.25,2.79-2.79,2.79h-6.33
			c-1.54,0-2.79-1.25-2.79-2.79v-6.15c0-1.54,1.25-2.79,2.79-2.79H253.97z M247.64,233.33c-0.08,0-0.14,0.06-0.14,0.14v6.15
			c0,0.08,0.06,0.14,0.14,0.14h6.33c0.08,0,0.14-0.06,0.14-0.14v-6.15c0-0.08-0.06-0.14-0.14-0.14H247.64z"/>
		<path class="st2" d="M270.54,239.76v2.65h-9.12c-1.54,0-2.79-1.25-2.79-2.79v-6.15c0-1.54,1.25-2.79,2.79-2.79h9.08v2.65h-9.08
			c-0.08,0-0.14,0.06-0.14,0.14v6.15c0,0.08,0.06,0.14,0.14,0.14H270.54z"/>
		<path class="st2" d="M284.17,230.68v0.69l-4.69,5.18l4.69,5.18v0.69h-2.85l-4.19-4.53h-2.08v4.53h-2.65v-15.57h2.65v8.37h2.08
			l4.19-4.53H284.17z"/>
		<path class="st2" d="M297.24,233.97h-2.65v-0.51c0-0.08-0.06-0.14-0.14-0.14h-6.33c-0.08,0-0.14,0.06-0.14,0.14v1.62
			c0,0.08,0.06,0.12,0.14,0.12h6.33c1.56,0,2.79,1.25,2.79,2.79v1.62c0,1.54-1.23,2.79-2.79,2.79h-6.33c-1.54,0-2.79-1.25-2.79-2.79
			v-0.51h2.65v0.51c0,0.08,0.06,0.14,0.14,0.14h6.33c0.08,0,0.14-0.06,0.14-0.14V238c0-0.08-0.06-0.12-0.14-0.12h-6.33
			c-1.54,0-2.79-1.25-2.79-2.79v-1.62c0-1.54,1.25-2.79,2.79-2.79h6.33c1.56,0,2.79,1.25,2.79,2.79V233.97z"/>
	</g>
	<g>
		<path class="st5" d="M468.09,879.65c2.46,0,4.48,1.98,4.48,4.45v18.59h-4.26v-7.74h-14.56v7.74h-4.22V884.1
			c0-2.46,1.98-4.45,4.45-4.45H468.09z M468.32,890.72v-6.62c0-0.13-0.1-0.22-0.22-0.22h-14.11c-0.13,0-0.22,0.1-0.22,0.22v6.62
			H468.32z"/>
		<path class="st5" d="M495.01,888.55v9.73c0,2.43-1.98,4.42-4.42,4.42h-14.43v-24.64h4.19v6.08h10.24
			C493.02,884.13,495.01,886.12,495.01,888.55z M490.82,888.55c0-0.13-0.1-0.22-0.22-0.22h-10.02c-0.13,0-0.22,0.1-0.22,0.22v9.73
			c0,0.13,0.1,0.22,0.22,0.22h10.02c0.13,0,0.22-0.1,0.22-0.22V888.55z"/>
		<path class="st5" d="M516.29,888.55v14.14h-14.43c-2.43,0-4.42-1.98-4.42-4.42v-6.98h14.65v-2.75c0-0.13-0.1-0.22-0.22-0.22
			h-14.43v-4.19h14.43C514.3,884.13,516.29,886.12,516.29,888.55z M512.09,895.52h-10.46v2.75c0,0.13,0.1,0.22,0.22,0.22h10.24
			V895.52z"/>
		<path class="st5" d="M538.27,888.55v14.14h-4.19v-14.14c0-0.13-0.1-0.22-0.22-0.22h-10.02c-0.13,0-0.22,0.1-0.22,0.22v14.14h-4.19
			v-18.56h14.43C536.29,884.13,538.27,886.12,538.27,888.55z"/>
		<path class="st5" d="M559.58,878.05v24.64h-14.46c-2.43,0-4.42-1.98-4.42-4.42v-9.73c0-2.43,1.98-4.42,4.42-4.42h10.27v-6.08
			H559.58z M555.17,898.5c0.13,0,0.22-0.1,0.22-0.22v-9.73c0-0.13-0.1-0.22-0.22-0.22h-10.05c-0.13,0-0.19,0.1-0.19,0.22v9.73
			c0,0.13,0.06,0.22,0.19,0.22H555.17z"/>
		<path class="st5" d="M576.64,884.13c2.43,0,4.42,1.98,4.42,4.42v9.73c0,2.43-1.98,4.42-4.42,4.42h-10.01
			c-2.43,0-4.42-1.98-4.42-4.42v-9.73c0-2.43,1.98-4.42,4.42-4.42H576.64z M566.62,888.32c-0.13,0-0.22,0.1-0.22,0.22v9.73
			c0,0.13,0.1,0.22,0.22,0.22h10.01c0.13,0,0.22-0.1,0.22-0.22v-9.73c0-0.13-0.1-0.22-0.22-0.22H566.62z"/>
		<path class="st5" d="M602.43,888.55v14.14h-4.19v-14.14c0-0.13-0.1-0.22-0.22-0.22H588c-0.13,0-0.22,0.1-0.22,0.22v14.14h-4.19
			v-18.56h14.43C600.45,884.13,602.43,886.12,602.43,888.55z"/>
		<path class="st5" d="M623.81,888.55v6.98h-14.66v2.75c0,0.13,0.1,0.22,0.22,0.22h14.43v4.19h-14.43c-2.43,0-4.42-1.98-4.42-4.42
			v-9.73c0-2.43,1.98-4.42,4.42-4.42h10.01C621.82,884.13,623.81,886.12,623.81,888.55z M619.62,891.3v-2.75
			c0-0.13-0.1-0.22-0.22-0.22h-10.01c-0.13,0-0.22,0.1-0.22,0.22v2.75H619.62z"/>
		<path class="st5" d="M645.73,878.05v24.64h-14.46c-2.43,0-4.42-1.98-4.42-4.42v-9.73c0-2.43,1.98-4.42,4.42-4.42h10.27v-6.08
			H645.73z M641.31,898.5c0.13,0,0.22-0.1,0.22-0.22v-9.73c0-0.13-0.1-0.22-0.22-0.22h-10.05c-0.13,0-0.19,0.1-0.19,0.22v9.73
			c0,0.13,0.06,0.22,0.19,0.22H641.31z"/>
		<path class="st5" d="M482.51,918.05v4.22h-16.93v5.18h13.63v4.22h-13.63v9.41h-4.26v-23.04H482.51z"/>
		<path class="st5" d="M503.15,922.53v14.14c0,2.43-1.98,4.42-4.42,4.42h-10.02c-2.46,0-4.42-1.98-4.42-4.42v-14.14h4.19v14.14
			c0,0.13,0.1,0.22,0.22,0.22h10.02c0.13,0,0.22-0.1,0.22-0.22v-14.14H503.15z"/>
		<path class="st5" d="M525.42,926.95v14.14h-4.19v-14.14c0-0.13-0.1-0.22-0.22-0.22h-10.02c-0.13,0-0.22,0.1-0.22,0.22v14.14h-4.19
			v-18.56h14.43C523.44,922.53,525.42,924.52,525.42,926.95z"/>
		<path class="st5" d="M547.69,926.95v14.14h-4.19v-14.14c0-0.13-0.1-0.22-0.22-0.22h-10.02c-0.13,0-0.22,0.1-0.22,0.22v14.14h-4.19
			v-24.64h4.19v6.08h10.24C545.68,922.53,547.69,924.52,547.69,926.95z"/>
		<path class="st5" d="M564.56,922.53c2.43,0,4.42,1.98,4.42,4.42v9.73c0,2.43-1.98,4.42-4.42,4.42h-10.01
			c-2.43,0-4.42-1.98-4.42-4.42v-9.73c0-2.43,1.98-4.42,4.42-4.42H564.56z M554.54,926.72c-0.13,0-0.22,0.1-0.22,0.22v9.73
			c0,0.13,0.1,0.22,0.22,0.22h10.01c0.13,0,0.22-0.1,0.22-0.22v-9.73c0-0.13-0.1-0.22-0.22-0.22H554.54z"/>
		<path class="st5" d="M590.38,922.53v14.14c0,2.43-1.98,4.42-4.42,4.42h-10.02c-2.46,0-4.42-1.98-4.42-4.42v-14.14h4.19v14.14
			c0,0.13,0.1,0.22,0.22,0.22h10.02c0.13,0,0.22-0.1,0.22-0.22v-14.14H590.38z"/>
		<path class="st5" d="M612.3,927.75h-4.19v-0.8c0-0.13-0.1-0.22-0.22-0.22h-10.02c-0.13,0-0.22,0.1-0.22,0.22v2.56
			c0,0.13,0.1,0.19,0.22,0.19h10.02c2.46,0,4.42,1.98,4.42,4.42v2.56c0,2.43-1.95,4.42-4.42,4.42h-10.02
			c-2.43,0-4.42-1.98-4.42-4.42v-0.8h4.19v0.8c0,0.13,0.1,0.22,0.22,0.22h10.02c0.13,0,0.22-0.1,0.22-0.22v-2.56
			c0-0.13-0.1-0.19-0.22-0.19h-10.02c-2.43,0-4.42-1.98-4.42-4.42v-2.56c0-2.43,1.98-4.42,4.42-4.42h10.02
			c2.46,0,4.42,1.98,4.42,4.42V927.75z"/>
		<path class="st5" d="M634,926.95v6.98h-14.66v2.75c0,0.13,0.1,0.22,0.22,0.22H634v4.19h-14.43c-2.43,0-4.42-1.98-4.42-4.42v-9.73
			c0-2.43,1.98-4.42,4.42-4.42h10.01C632.02,922.53,634,924.52,634,926.95z M629.81,929.7v-2.75c0-0.13-0.1-0.22-0.22-0.22h-10.01
			c-0.13,0-0.22,0.1-0.22,0.22v2.75H629.81z"/>
	</g>
	<g>
		<path class="st5" d="M114.62,879.65v4.22h-9.38v18.81h-4.26v-18.81h-9.41v-4.22H114.62z"/>
		<path class="st5" d="M135.8,888.55v14.14h-4.19v-14.14c0-0.13-0.1-0.22-0.22-0.22h-10.02c-0.13,0-0.22,0.1-0.22,0.22v14.14h-4.19
			v-24.64h4.19v6.08h10.24C133.79,884.13,135.8,886.12,135.8,888.55z"/>
		<path class="st5" d="M157.08,888.55v6.97h-14.65v2.75c0,0.13,0.1,0.22,0.22,0.22h14.43v4.19h-14.43c-2.43,0-4.42-1.98-4.42-4.42
			v-9.73c0-2.43,1.98-4.42,4.42-4.42h10.02C155.1,884.13,157.08,886.12,157.08,888.55z M152.89,891.3v-2.75
			c0-0.13-0.1-0.22-0.22-0.22h-10.02c-0.13,0-0.22,0.1-0.22,0.22v2.75H152.89z"/>
		<path class="st5" d="M205.08,879.65l-8.38,23.04h-3.33l-5.98-16.35c-1.95,5.38-4.06,11.01-5.98,16.35h-3.3l-8.38-23.04h4.48
			l5.57,15.2l5.57-15.2h4.13l5.57,15.2l5.57-15.2H205.08z"/>
		<path class="st5" d="M219.86,884.13c2.43,0,4.42,1.98,4.42,4.42v9.73c0,2.43-1.98,4.42-4.42,4.42h-10.02
			c-2.43,0-4.42-1.98-4.42-4.42v-9.73c0-2.43,1.98-4.42,4.42-4.42H219.86z M209.85,888.32c-0.13,0-0.22,0.1-0.22,0.22v9.73
			c0,0.13,0.1,0.22,0.22,0.22h10.02c0.13,0,0.22-0.1,0.22-0.22v-9.73c0-0.13-0.1-0.22-0.22-0.22H209.85z"/>
		<path class="st5" d="M241.85,884.13v4.19h-10.3c-0.13,0-0.22,0.1-0.22,0.22v14.14h-4.19v-14.14c0-2.43,1.98-4.42,4.42-4.42H241.85
			z"/>
		<path class="st5" d="M248.25,878.05v20.22c0,0.13,0.06,0.22,0.19,0.22h3.74v4.19h-3.74c-2.43,0-4.42-1.98-4.42-4.42v-20.22H248.25
			z"/>
		<path class="st5" d="M272.98,878.05v24.64h-14.46c-2.43,0-4.42-1.98-4.42-4.42v-9.73c0-2.43,1.98-4.42,4.42-4.42h10.27v-6.08
			H272.98z M268.57,898.5c0.13,0,0.22-0.1,0.22-0.22v-9.73c0-0.13-0.1-0.22-0.22-0.22h-10.05c-0.13,0-0.19,0.1-0.19,0.22v9.73
			c0,0.13,0.06,0.22,0.19,0.22H268.57z"/>
		<path class="st5" d="M152.79,918.05h4.26v23.04h-4.61l-14.21-16.89v16.89h-4.22v-23.04h4.61l14.18,16.89V918.05z"/>
		<path class="st5" d="M178.52,926.95v6.97h-14.65v2.75c0,0.13,0.1,0.22,0.22,0.22h14.43v4.19h-14.43c-2.43,0-4.42-1.98-4.42-4.42
			v-9.73c0-2.43,1.98-4.42,4.42-4.42h10.02C176.54,922.53,178.52,924.52,178.52,926.95z M174.33,929.7v-2.75
			c0-0.13-0.1-0.22-0.22-0.22h-10.02c-0.13,0-0.22,0.1-0.22,0.22v2.75H174.33z"/>
		<path class="st5" d="M211.93,922.53l-6.98,18.56h-3.26l-5.6-12.42l-5.38,12.42h-3.23l-7.3-18.56h4.45l4.48,10.94
			c1.57-3.62,3.23-7.36,4.77-10.94h4.35l5.06,11.01c1.41-3.62,2.85-7.42,4.19-11.01H211.93z"/>
		<path class="st5" d="M231.86,927.75h-4.19v-0.8c0-0.13-0.1-0.22-0.22-0.22h-10.02c-0.13,0-0.22,0.1-0.22,0.22v2.56
			c0,0.13,0.1,0.19,0.22,0.19h10.02c2.46,0,4.42,1.98,4.42,4.42v2.56c0,2.43-1.95,4.42-4.42,4.42h-10.02
			c-2.43,0-4.42-1.98-4.42-4.42v-0.8h4.19v0.8c0,0.13,0.1,0.22,0.22,0.22h10.02c0.13,0,0.22-0.1,0.22-0.22v-2.56
			c0-0.13-0.1-0.19-0.22-0.19h-10.02c-2.43,0-4.42-1.98-4.42-4.42v-2.56c0-2.43,1.98-4.42,4.42-4.42h10.02
			c2.46,0,4.42,1.98,4.42,4.42V927.75z"/>
	</g>
	<g>
		<path class="st5" d="M453.35,111.72h4.22v18.85h18.81v4.22h-23.04V111.72z"/>
		<path class="st5" d="M496.96,120.65v14.14h-14.43c-2.43,0-4.42-1.98-4.42-4.42v-6.98h14.65v-2.75c0-0.13-0.1-0.22-0.22-0.22
			h-14.43v-4.19h14.43C494.98,116.24,496.96,118.22,496.96,120.65z M492.77,127.63h-10.46v2.75c0,0.13,0.1,0.22,0.22,0.22h10.24
			V127.63z"/>
		<path class="st5" d="M518.62,120.65v9.73c0,2.43-1.98,4.42-4.42,4.42h-14.43v-24.64h4.19v6.08h10.24
			C516.64,116.24,518.62,118.22,518.62,120.65z M514.43,120.65c0-0.13-0.1-0.22-0.22-0.22h-10.02c-0.13,0-0.22,0.1-0.22,0.22v9.73
			c0,0.13,0.1,0.22,0.22,0.22h10.02c0.13,0,0.22-0.1,0.22-0.22V120.65z"/>
		<path class="st5" d="M535.78,116.24v4.19h-10.3c-0.13,0-0.22,0.1-0.22,0.22v14.14h-4.19v-14.14c0-2.43,1.98-4.42,4.42-4.42H535.78
			z"/>
		<path class="st5" d="M557.6,120.65v14.14h-14.43c-2.43,0-4.42-1.98-4.42-4.42v-6.98h14.65v-2.75c0-0.13-0.1-0.22-0.22-0.22h-14.43
			v-4.19h14.43C555.62,116.24,557.6,118.22,557.6,120.65z M553.41,127.63h-10.46v2.75c0,0.13,0.1,0.22,0.22,0.22h10.24V127.63z"/>
		<path class="st5" d="M565.18,120.43v9.95c0,0.13,0.1,0.22,0.22,0.22h7.01v4.19h-7.01c-2.46,0-4.42-1.98-4.42-4.42v-20.22h4.19
			v6.08h7.23v4.19H565.18z"/>
		<path class="st5" d="M589.34,116.24c2.43,0,4.42,1.98,4.42,4.42v9.73c0,2.43-1.98,4.42-4.42,4.42h-10.01
			c-2.43,0-4.42-1.98-4.42-4.42v-9.73c0-2.43,1.98-4.42,4.42-4.42H589.34z M579.33,120.43c-0.13,0-0.22,0.1-0.22,0.22v9.73
			c0,0.13,0.1,0.22,0.22,0.22h10.01c0.13,0,0.22-0.1,0.22-0.22v-9.73c0-0.13-0.1-0.22-0.22-0.22H579.33z"/>
		<path class="st5" d="M611.33,116.24v4.19h-10.3c-0.13,0-0.22,0.1-0.22,0.22v14.14h-4.19v-14.14c0-2.43,1.98-4.42,4.42-4.42H611.33
			z"/>
		<path class="st5" d="M627.65,142.15h-11.36v-4.22h11.36c0.1,0,0.19-0.06,0.19-0.19v-2.94H617.6c-2.43,0-4.42-1.98-4.42-4.42V116.3
			h4.19v14.08c0,0.13,0.1,0.22,0.22,0.22h10.05c0.1,0,0.19-0.1,0.19-0.22V116.3h4.19v21.44
			C632.03,140.17,630.08,142.15,627.65,142.15z"/>
		<path class="st5" d="M540.64,154.64c2.43,0,4.42,1.98,4.42,4.42v9.73c0,2.43-1.98,4.42-4.42,4.42h-10.01
			c-2.43,0-4.42-1.98-4.42-4.42v-9.73c0-2.43,1.98-4.42,4.42-4.42H540.64z M530.63,158.83c-0.13,0-0.22,0.1-0.22,0.22v9.73
			c0,0.13,0.1,0.22,0.22,0.22h10.01c0.13,0,0.22-0.1,0.22-0.22v-9.73c0-0.13-0.1-0.22-0.22-0.22H530.63z"/>
		<path class="st5" d="M552.61,152.97v1.66h7.23v4.19h-7.23v14.37h-4.19v-20.22c0-2.43,1.95-4.42,4.42-4.42h7.01v4.22h-7.01
			C552.71,152.78,552.61,152.84,552.61,152.97z"/>
		<path class="st5" d="M500.06,197.52c0,0.61-0.1,1.15-0.32,1.63c0.74,0.77,1.25,1.89,1.25,3.04v4.96c0,2.46-2.02,4.45-4.48,4.45
			h-18.56v-23.04h17.66c2.43,0,4.45,1.98,4.45,4.45V197.52z M482.4,192.78c-0.13,0-0.22,0.1-0.22,0.22v4.51
			c0,0.13,0.1,0.22,0.22,0.22h13.21c0.1,0,0.19-0.1,0.19-0.22V193c0-0.13-0.1-0.22-0.19-0.22H482.4z M496.74,202.19
			c0-0.13-0.1-0.19-0.22-0.19H482.4c-0.13,0-0.22,0.06-0.22,0.19v4.96c0,0.13,0.1,0.22,0.22,0.22h14.11c0.13,0,0.22-0.1,0.22-0.22
			V202.19z"/>
		<path class="st5" d="M508.54,186.96v4.22h-4.19v-4.22H508.54z M504.35,193.04h4.19v18.56h-4.19V193.04z"/>
		<path class="st5" d="M511.87,193.04h18.85v4.58l-12.67,9.79h12.67v4.19h-18.85v-4.58l12.67-9.79h-12.67V193.04z"/>
		<path class="st5" d="M552.13,197.45v14.14H537.7c-2.43,0-4.42-1.98-4.42-4.42v-6.98h14.65v-2.75c0-0.13-0.1-0.22-0.22-0.22h-14.43
			v-4.19h14.43C550.14,193.04,552.13,195.02,552.13,197.45z M547.94,204.43h-10.46v2.75c0,0.13,0.1,0.22,0.22,0.22h10.24V204.43z"/>
		<path class="st5" d="M569.66,193.04v4.19h-10.3c-0.13,0-0.22,0.1-0.22,0.22v14.14h-4.19v-14.14c0-2.43,1.98-4.42,4.42-4.42H569.66
			z"/>
		<path class="st5" d="M586.56,193.04v4.19h-10.3c-0.13,0-0.22,0.1-0.22,0.22v14.14h-4.19v-14.14c0-2.43,1.98-4.42,4.42-4.42H586.56
			z"/>
		<path class="st5" d="M607.55,197.45v6.98H592.9v2.75c0,0.13,0.1,0.22,0.22,0.22h14.43v4.19h-14.43c-2.43,0-4.42-1.98-4.42-4.42
			v-9.73c0-2.43,1.98-4.42,4.42-4.42h10.01C605.57,193.04,607.55,195.02,607.55,197.45z M603.36,200.2v-2.75
			c0-0.13-0.1-0.22-0.22-0.22h-10.01c-0.13,0-0.22,0.1-0.22,0.22v2.75H603.36z"/>
		<path class="st5" d="M485.89,237.64c0,2.43-2.02,4.45-4.48,4.45h-1.25l5.73,6.82V250h-4.61l-6.66-7.9h-7.46h-0.1v7.9h-4.22v-23.01
			h18.56c2.46,0,4.48,2.02,4.48,4.45V237.64z M481.41,237.87c0.13,0,0.22-0.1,0.22-0.22v-6.21c0-0.13-0.1-0.22-0.22-0.22H467.3
			c-0.13,0-0.22,0.1-0.22,0.22v6.21c0,0.13,0.1,0.22,0.22,0.22H481.41z"/>
		<path class="st5" d="M507.97,235.85v6.98h-14.66v2.75c0,0.13,0.1,0.22,0.22,0.22h14.43V250h-14.43c-2.43,0-4.42-1.98-4.42-4.42
			v-9.73c0-2.43,1.98-4.42,4.42-4.42h10.01C505.99,231.44,507.97,233.42,507.97,235.85z M503.78,238.6v-2.75
			c0-0.13-0.1-0.22-0.22-0.22h-10.01c-0.13,0-0.22,0.1-0.22,0.22v2.75H503.78z"/>
		<path class="st5" d="M529.38,236.65h-4.19v-0.8c0-0.13-0.1-0.22-0.22-0.22h-10.02c-0.13,0-0.22,0.1-0.22,0.22v2.56
			c0,0.13,0.1,0.19,0.22,0.19h10.02c2.46,0,4.42,1.98,4.42,4.42v2.56c0,2.43-1.95,4.42-4.42,4.42h-10.02
			c-2.43,0-4.42-1.98-4.42-4.42v-0.8h4.19v0.8c0,0.13,0.1,0.22,0.22,0.22h10.02c0.13,0,0.22-0.1,0.22-0.22v-2.56
			c0-0.13-0.1-0.19-0.22-0.19h-10.02c-2.43,0-4.42-1.98-4.42-4.42v-2.56c0-2.43,1.98-4.42,4.42-4.42h10.02
			c2.46,0,4.42,1.98,4.42,4.42V236.65z"/>
		<path class="st5" d="M551.07,235.85v6.98h-14.66v2.75c0,0.13,0.1,0.22,0.22,0.22h14.43V250h-14.43c-2.43,0-4.42-1.98-4.42-4.42
			v-9.73c0-2.43,1.98-4.42,4.42-4.42h10.01C549.09,231.44,551.07,233.42,551.07,235.85z M546.88,238.6v-2.75
			c0-0.13-0.1-0.22-0.22-0.22h-10.01c-0.13,0-0.22,0.1-0.22,0.22v2.75H546.88z"/>
		<path class="st5" d="M573.25,235.85V250h-14.43c-2.43,0-4.42-1.98-4.42-4.42v-6.98h14.65v-2.75c0-0.13-0.1-0.22-0.22-0.22H554.4
			v-4.19h14.43C571.26,231.44,573.25,233.42,573.25,235.85z M569.06,242.83h-10.46v2.75c0,0.13,0.1,0.22,0.22,0.22h10.24V242.83z"/>
		<path class="st5" d="M590.78,231.44v4.19h-10.3c-0.13,0-0.22,0.1-0.22,0.22V250h-4.19v-14.14c0-2.43,1.98-4.42,4.42-4.42H590.78z"
			/>
		<path class="st5" d="M611.78,245.8V250h-14.43c-2.43,0-4.42-1.98-4.42-4.42v-9.73c0-2.43,1.98-4.42,4.42-4.42h14.37v4.19h-14.37
			c-0.13,0-0.22,0.1-0.22,0.22v9.73c0,0.13,0.1,0.22,0.22,0.22H611.78z"/>
		<path class="st5" d="M633.25,235.85V250h-4.19v-14.14c0-0.13-0.1-0.22-0.22-0.22h-10.02c-0.13,0-0.22,0.1-0.22,0.22V250h-4.19
			v-24.64h4.19v6.08h10.24C631.23,231.44,633.25,233.42,633.25,235.85z"/>
	</g>
	<g>
		<path class="st5" d="M492.16,514.9h4.26v18.59c0,2.46-2.02,4.45-4.45,4.45h-14.14c-2.46,0-4.45-1.98-4.45-4.45v-2.62h4.22v2.62
			c0,0.13,0.1,0.22,0.22,0.22h14.14c0.1,0,0.19-0.1,0.19-0.22V514.9z"/>
		<path class="st5" d="M517.82,523.8v6.98h-14.66v2.75c0,0.13,0.1,0.22,0.22,0.22h14.43v4.19h-14.43c-2.43,0-4.42-1.98-4.42-4.42
			v-9.73c0-2.43,1.98-4.42,4.42-4.42h10.01C515.84,519.38,517.82,521.37,517.82,523.8z M513.63,526.55v-2.75
			c0-0.13-0.1-0.22-0.22-0.22h-10.01c-0.13,0-0.22,0.1-0.22,0.22v2.75H513.63z"/>
		<path class="st5" d="M551.23,519.38l-6.98,18.56h-3.26l-5.6-12.42l-5.38,12.42h-3.23l-7.29-18.56h4.45l4.48,10.94
			c1.57-3.62,3.23-7.36,4.77-10.94h4.35l5.06,11.01c1.41-3.62,2.85-7.42,4.19-11.01H551.23z"/>
		<path class="st5" d="M571.2,523.8v6.98h-14.66v2.75c0,0.13,0.1,0.22,0.22,0.22h14.43v4.19h-14.43c-2.43,0-4.42-1.98-4.42-4.42
			v-9.73c0-2.43,1.98-4.42,4.42-4.42h10.01C569.22,519.38,571.2,521.37,571.2,523.8z M567.01,526.55v-2.75
			c0-0.13-0.1-0.22-0.22-0.22h-10.01c-0.13,0-0.22,0.1-0.22,0.22v2.75H567.01z"/>
		<path class="st5" d="M577.95,513.3v20.22c0,0.13,0.06,0.22,0.19,0.22h3.74v4.19h-3.74c-2.43,0-4.42-1.98-4.42-4.42V513.3H577.95z"
			/>
		<path class="st5" d="M599.46,519.38v4.19h-10.3c-0.13,0-0.22,0.1-0.22,0.22v14.14h-4.19V523.8c0-2.43,1.98-4.42,4.42-4.42H599.46z
			"/>
		<path class="st5" d="M615.78,545.3h-11.36v-4.22h11.36c0.1,0,0.19-0.06,0.19-0.19v-2.94h-10.24c-2.43,0-4.42-1.98-4.42-4.42
			v-14.08h4.19v14.08c0,0.13,0.1,0.22,0.22,0.22h10.05c0.1,0,0.19-0.1,0.19-0.22v-14.08h4.19v21.44
			C620.16,543.32,618.21,545.3,615.78,545.3z"/>
		<path class="st5" d="M521.74,559.51h-4.26v-1.76c0-0.13-0.1-0.22-0.19-0.22h-14.14c-0.13,0-0.22,0.1-0.22,0.22v4.74
			c0,0.13,0.1,0.22,0.22,0.22h14.14c2.43,0,4.45,1.98,4.45,4.45v4.74c0,2.46-2.02,4.45-4.45,4.45h-14.14
			c-2.46,0-4.45-1.98-4.45-4.45v-1.76h4.22v1.76c0,0.13,0.1,0.22,0.22,0.22h14.14c0.1,0,0.19-0.1,0.19-0.22v-4.74
			c0-0.13-0.1-0.22-0.19-0.22h-14.14c-2.46,0-4.45-1.98-4.45-4.45v-4.74c0-2.46,1.98-4.45,4.45-4.45h14.14
			c2.43,0,4.45,1.98,4.45,4.45V559.51z"/>
		<path class="st5" d="M529.26,561.97v9.95c0,0.13,0.1,0.22,0.22,0.22h7.01v4.19h-7.01c-2.46,0-4.42-1.98-4.42-4.42V551.7h4.19v6.08
			h7.23v4.19H529.26z"/>
		<path class="st5" d="M553.42,557.78c2.43,0,4.42,1.98,4.42,4.42v9.73c0,2.43-1.98,4.42-4.42,4.42h-10.01
			c-2.43,0-4.42-1.98-4.42-4.42v-9.73c0-2.43,1.98-4.42,4.42-4.42H553.42z M543.41,561.97c-0.13,0-0.22,0.1-0.22,0.22v9.73
			c0,0.13,0.1,0.22,0.22,0.22h10.01c0.13,0,0.22-0.1,0.22-0.22v-9.73c0-0.13-0.1-0.22-0.22-0.22H543.41z"/>
		<path class="st5" d="M575.41,557.78v4.19h-10.3c-0.13,0-0.22,0.1-0.22,0.22v14.14h-4.19V562.2c0-2.43,1.98-4.42,4.42-4.42H575.41z
			"/>
		<path class="st5" d="M596.4,562.2v6.98h-14.66v2.75c0,0.13,0.1,0.22,0.22,0.22h14.43v4.19h-14.43c-2.43,0-4.42-1.98-4.42-4.42
			v-9.73c0-2.43,1.98-4.42,4.42-4.42h10.01C594.42,557.78,596.4,559.77,596.4,562.2z M592.21,564.95v-2.75
			c0-0.13-0.1-0.22-0.22-0.22h-10.01c-0.13,0-0.22,0.1-0.22,0.22v2.75H592.21z"/>
	</g>
	<g>
		<path class="st5" d="M863.67,885.89h-4.26v-1.79c0-0.13-0.1-0.22-0.22-0.22h-14.11c-0.13,0-0.22,0.1-0.22,0.22v14.14
			c0,0.13,0.1,0.22,0.22,0.22h14.11c0.13,0,0.22-0.1,0.22-0.22v-4.35h-5.21v-4.22h9.47v8.58c0,2.46-2.02,4.45-4.48,4.45h-14.11
			c-2.46,0-4.45-1.98-4.45-4.45V884.1c0-2.46,1.98-4.45,4.45-4.45h14.11c2.46,0,4.48,1.98,4.48,4.45V885.89z"/>
		<path class="st5" d="M881.78,884.13v4.19h-10.3c-0.13,0-0.22,0.1-0.22,0.22v14.14h-4.19v-14.14c0-2.43,1.98-4.42,4.42-4.42H881.78
			z"/>
		<path class="st5" d="M898.36,884.13c2.43,0,4.42,1.98,4.42,4.42v9.73c0,2.43-1.98,4.42-4.42,4.42h-10.01
			c-2.43,0-4.42-1.98-4.42-4.42v-9.73c0-2.43,1.98-4.42,4.42-4.42H898.36z M888.34,888.32c-0.13,0-0.22,0.1-0.22,0.22v9.73
			c0,0.13,0.1,0.22,0.22,0.22h10.01c0.13,0,0.22-0.1,0.22-0.22v-9.73c0-0.13-0.1-0.22-0.22-0.22H888.34z"/>
		<path class="st5" d="M924.6,898.5v4.19h-14.43c-2.43,0-4.42-1.98-4.42-4.42v-9.73c0-2.43,1.98-4.42,4.42-4.42h14.37v4.19h-14.37
			c-0.13,0-0.22,0.1-0.22,0.22v9.73c0,0.13,0.1,0.22,0.22,0.22H924.6z"/>
		<path class="st5" d="M946.1,888.55v6.98h-14.66v2.75c0,0.13,0.1,0.22,0.22,0.22h14.43v4.19h-14.43c-2.43,0-4.42-1.98-4.42-4.42
			v-9.73c0-2.43,1.98-4.42,4.42-4.42h10.01C944.12,884.13,946.1,886.12,946.1,888.55z M941.91,891.3v-2.75
			c0-0.13-0.1-0.22-0.22-0.22h-10.01c-0.13,0-0.22,0.1-0.22,0.22v2.75H941.91z"/>
		<path class="st5" d="M963.35,884.13v4.19h-10.3c-0.13,0-0.22,0.1-0.22,0.22v14.14h-4.19v-14.14c0-2.43,1.98-4.42,4.42-4.42H963.35
			z"/>
		<path class="st5" d="M979.67,910.05h-11.36v-4.22h11.36c0.1,0,0.19-0.06,0.19-0.19v-2.94h-10.24c-2.43,0-4.42-1.98-4.42-4.42
			V884.2h4.19v14.08c0,0.13,0.1,0.22,0.22,0.22h10.05c0.1,0,0.19-0.1,0.19-0.22V884.2h4.19v21.44
			C984.06,908.07,982.1,910.05,979.67,910.05z"/>
		<path class="st5" d="M894.33,918.05h4.64v23.04h-4.26V924.2l-8.74,10.4l-8.77-10.4v16.89h-4.22v-23.04h4.61l8.38,9.98
			L894.33,918.05z"/>
		<path class="st5" d="M921.4,926.95v14.14h-14.43c-2.43,0-4.42-1.98-4.42-4.42v-6.98h14.65v-2.75c0-0.13-0.1-0.22-0.22-0.22h-14.43
			v-4.19h14.43C919.42,922.53,921.4,924.52,921.4,926.95z M917.21,933.92h-10.46v2.75c0,0.13,0.1,0.22,0.22,0.22h10.24V933.92z"/>
		<path class="st5" d="M938.94,922.53v4.19h-10.3c-0.13,0-0.22,0.1-0.22,0.22v14.14h-4.19v-14.14c0-2.43,1.98-4.42,4.42-4.42H938.94
			z"/>
		<path class="st5" d="M945.34,926.72v9.95c0,0.13,0.1,0.22,0.22,0.22h7.01v4.19h-7.01c-2.46,0-4.42-1.98-4.42-4.42v-20.22h4.19
			v6.08h7.23v4.19H945.34z"/>
	</g>
	<g>
		<path class="st5" d="M891.62,514.9v4.22h-9.38v18.81h-4.26v-18.81h-9.41v-4.22H891.62z"/>
		<path class="st5" d="M912.7,523.8v6.98h-14.66v2.75c0,0.13,0.1,0.22,0.22,0.22h14.43v4.19h-14.43c-2.43,0-4.42-1.98-4.42-4.42
			v-9.73c0-2.43,1.98-4.42,4.42-4.42h10.01C910.72,519.38,912.7,521.37,912.7,523.8z M908.51,526.55v-2.75
			c0-0.13-0.1-0.22-0.22-0.22h-10.01c-0.13,0-0.22,0.1-0.22,0.22v2.75H908.51z"/>
		<path class="st5" d="M934.43,533.75v4.19H920c-2.43,0-4.42-1.98-4.42-4.42v-9.73c0-2.43,1.98-4.42,4.42-4.42h14.37v4.19H920
			c-0.13,0-0.22,0.1-0.22,0.22v9.73c0,0.13,0.1,0.22,0.22,0.22H934.43z"/>
		<path class="st5" d="M955.9,523.8v14.14h-4.19V523.8c0-0.13-0.1-0.22-0.22-0.22h-10.02c-0.13,0-0.22,0.1-0.22,0.22v14.14h-4.19
			V513.3h4.19v6.08h10.24C953.89,519.38,955.9,521.37,955.9,523.8z"/>
		<path class="st5" d="M879.05,553.3v4.22h-9.38v18.81h-4.26v-18.81h-9.41v-4.22H879.05z"/>
		<path class="st5" d="M893.71,557.78c2.43,0,4.42,1.98,4.42,4.42v9.73c0,2.43-1.98,4.42-4.42,4.42H883.7
			c-2.43,0-4.42-1.98-4.42-4.42v-9.73c0-2.43,1.98-4.42,4.42-4.42H893.71z M883.7,561.97c-0.13,0-0.22,0.1-0.22,0.22v9.73
			c0,0.13,0.1,0.22,0.22,0.22h10.01c0.13,0,0.22-0.1,0.22-0.22v-9.73c0-0.13-0.1-0.22-0.22-0.22H883.7z"/>
		<path class="st5" d="M931.53,557.78l-6.98,18.56h-3.26l-5.6-12.42l-5.38,12.42h-3.23l-7.29-18.56h4.45l4.48,10.94
			c1.57-3.62,3.23-7.36,4.77-10.94h4.35l5.06,11.01c1.41-3.62,2.85-7.42,4.19-11.01H931.53z"/>
		<path class="st5" d="M951.5,562.2v6.98h-14.66v2.75c0,0.13,0.1,0.22,0.22,0.22h14.43v4.19h-14.43c-2.43,0-4.42-1.98-4.42-4.42
			v-9.73c0-2.43,1.98-4.42,4.42-4.42h10.01C949.52,557.78,951.5,559.77,951.5,562.2z M947.31,564.95v-2.75
			c0-0.13-0.1-0.22-0.22-0.22h-10.01c-0.13,0-0.22,0.1-0.22,0.22v2.75H947.31z"/>
		<path class="st5" d="M968.75,557.78v4.19h-10.3c-0.13,0-0.22,0.1-0.22,0.22v14.14h-4.19V562.2c0-2.43,1.98-4.42,4.42-4.42H968.75z
			"/>
	</g>
	<g>
		<path class="st5" d="M877.19,150.16h4.64v23.04h-4.26V156.3l-8.74,10.4l-8.77-10.4v16.89h-4.22v-23.04h4.61l8.38,9.98
			L877.19,150.16z"/>
		<path class="st5" d="M899.56,180.55H888.2v-4.22h11.36c0.1,0,0.19-0.06,0.19-0.19v-2.94h-10.24c-2.43,0-4.42-1.98-4.42-4.42V154.7
			h4.19v14.08c0,0.13,0.1,0.22,0.22,0.22h10.05c0.1,0,0.19-0.1,0.19-0.22V154.7h4.19v21.44
			C903.94,178.57,901.99,180.55,899.56,180.55z"/>
		<path class="st5" d="M925.32,159.85h-4.19v-0.8c0-0.13-0.1-0.22-0.22-0.22h-10.02c-0.13,0-0.22,0.1-0.22,0.22v2.56
			c0,0.13,0.1,0.19,0.22,0.19h10.02c2.46,0,4.42,1.98,4.42,4.42v2.56c0,2.43-1.95,4.42-4.42,4.42h-10.02
			c-2.43,0-4.42-1.98-4.42-4.42v-0.8h4.19v0.8c0,0.13,0.1,0.22,0.22,0.22h10.02c0.13,0,0.22-0.1,0.22-0.22v-2.56
			c0-0.13-0.1-0.19-0.22-0.19h-10.02c-2.43,0-4.42-1.98-4.42-4.42v-2.56c0-2.43,1.98-4.42,4.42-4.42h10.02
			c2.46,0,4.42,1.98,4.42,4.42V159.85z"/>
		<path class="st5" d="M932.78,158.83v9.95c0,0.13,0.1,0.22,0.22,0.22h7.01v4.19H933c-2.46,0-4.42-1.98-4.42-4.42v-20.22h4.19v6.08
			h7.23v4.19H932.78z"/>
		<path class="st5" d="M946.73,148.56v4.22h-4.19v-4.22H946.73z M942.54,154.64h4.19v18.56h-4.19V154.64z"/>
		<path class="st5" d="M968.81,169v4.19h-14.43c-2.43,0-4.42-1.98-4.42-4.42v-9.73c0-2.43,1.98-4.42,4.42-4.42h14.37v4.19h-14.37
			c-0.13,0-0.22,0.1-0.22,0.22v9.73c0,0.13,0.1,0.22,0.22,0.22H968.81z"/>
		<path class="st5" d="M879.3,188.56h4.64v23.04h-4.26V194.7l-8.74,10.4l-8.77-10.4v16.89h-4.22v-23.04h4.61l8.38,9.98L879.3,188.56
			z"/>
		<path class="st5" d="M906.38,197.45v14.14h-14.43c-2.43,0-4.42-1.98-4.42-4.42v-6.98h14.65v-2.75c0-0.13-0.1-0.22-0.22-0.22
			h-14.43v-4.19h14.43C904.39,193.04,906.38,195.02,906.38,197.45z M902.18,204.43h-10.46v2.75c0,0.13,0.1,0.22,0.22,0.22h10.24
			V204.43z"/>
		<path class="st5" d="M928.36,197.45v14.14h-4.19v-14.14c0-0.13-0.1-0.22-0.22-0.22h-10.02c-0.13,0-0.22,0.1-0.22,0.22v14.14h-4.19
			v-18.56h14.43C926.38,193.04,928.36,195.02,928.36,197.45z"/>
		<path class="st5" d="M945.96,193.04c2.43,0,4.42,1.98,4.42,4.42v9.73c0,2.43-1.98,4.42-4.42,4.42h-10.01
			c-2.43,0-4.42-1.98-4.42-4.42v-9.73c0-2.43,1.98-4.42,4.42-4.42H945.96z M935.95,197.23c-0.13,0-0.22,0.1-0.22,0.22v9.73
			c0,0.13,0.1,0.22,0.22,0.22h10.01c0.13,0,0.22-0.1,0.22-0.22v-9.73c0-0.13-0.1-0.22-0.22-0.22H935.95z"/>
		<path class="st5" d="M967.94,193.04v4.19h-10.3c-0.13,0-0.22,0.1-0.22,0.22v14.14h-4.19v-14.14c0-2.43,1.98-4.42,4.42-4.42H967.94
			z"/>
	</g>
</g>
</svg>
