<?xml version="1.0" encoding="utf-8"?>
<!-- Generator: Adobe Illustrator 28.0.0, SVG Export Plug-In . SVG Version: 6.00 Build 0)  -->
<svg version="1.1" id="Layer_1" xmlns="http://www.w3.org/2000/svg" xmlns:xlink="http://www.w3.org/1999/xlink" x="0px" y="0px"
	 viewBox="0 0 734.9 350.59" style="enable-background:new 0 0 734.9 350.59;" xml:space="preserve">
<style type="text/css">
	.st0{opacity:0.5;}
	.st1{fill:#1D76BB;}
	.st2{font-family:'Impact';}
	.st3{font-size:139.3779px;}
	.st4{font-size:185.8371px;}
	.st5{display:none;fill:#1D76BB;}
	.st6{font-family:'Orbitron-Light';}
	.st7{font-size:41.4931px;}
</style>
<g>
	<g class="st0">
		<path class="st1" d="M183.28,350.59L0,216.63L69.97,0H296.6l69.97,216.63L183.28,350.59z M40.84,203.38l142.44,104.11
			l142.44-104.11L271.28,34.79H95.29L40.84,203.38z"/>
	</g>
	<g>
		<path class="st1" d="M249.4,63.74v175.3h-57.51v-73.63h-17.21v73.63h-57.51V63.74h57.51v62.69h17.21V63.74H249.4z"/>
	</g>
	<g>
		<text transform="matrix(1 0 0 1 255.7676 239.043)"><tspan x="0" y="0" class="st1 st2 st3">ERO </tspan><tspan x="233.7" y="0" class="st1 st2 st4">G</tspan><tspan x="336.15" y="0" class="st1 st2 st3">UY</tspan></text>
	</g>
	<text transform="matrix(1 0 0 1 396.1534 277.0695)" class="st5 st6 st7">Secret Mission</text>
	<g>
		<path class="st1" d="M428.14,253.34h-3.36v-1.16c0-0.87-0.75-1.62-1.62-1.62h-19.91c-0.87,0-1.62,0.75-1.62,1.62v6.68
			c0,0.87,0.75,1.58,1.62,1.58h19.91c2.78,0,4.98,2.24,4.98,4.98v6.68c0,2.78-2.2,4.98-4.98,4.98h-19.91c-2.78,0-4.98-2.2-4.98-4.98
			v-1.16h3.36v1.16c0,0.87,0.75,1.62,1.62,1.62h19.91c0.87,0,1.62-0.75,1.62-1.62v-6.68c0-0.87-0.75-1.58-1.62-1.58h-19.91
			c-2.78,0-4.98-2.24-4.98-4.98v-6.68c0-2.78,2.2-4.98,4.98-4.98h19.91c2.78,0,4.98,2.2,4.98,4.98V253.34z"/>
		<path class="st1" d="M456.9,258.03v8.71h-21.12v5.31c0,0.87,0.75,1.62,1.62,1.62h19.5v3.4h-19.5c-2.78,0-5.02-2.24-5.02-5.02
			v-14.02c0-2.78,2.24-5.02,5.02-5.02h14.44C454.66,253.01,456.9,255.25,456.9,258.03z M453.45,263.34v-5.31
			c0-0.87-0.71-1.62-1.62-1.62H437.4c-0.87,0-1.62,0.75-1.62,1.62v5.31H453.45z"/>
		<path class="st1" d="M484.78,273.67v3.4h-19.5c-2.78,0-5.02-2.24-5.02-5.02v-14.02c0-2.78,2.24-5.02,5.02-5.02h19.42v3.4h-19.42
			c-0.87,0-1.62,0.75-1.62,1.62v14.02c0,0.87,0.75,1.62,1.62,1.62H484.78z"/>
		<path class="st1" d="M507.68,253.01v3.4h-13.53c-0.87,0-1.62,0.75-1.62,1.62v19.04h-3.4v-19.04c0-2.78,2.24-5.02,5.02-5.02H507.68
			z"/>
		<path class="st1" d="M534.86,258.03v8.71h-21.12v5.31c0,0.87,0.75,1.62,1.62,1.62h19.5v3.4h-19.5c-2.78,0-5.02-2.24-5.02-5.02
			v-14.02c0-2.78,2.24-5.02,5.02-5.02h14.44C532.62,253.01,534.86,255.25,534.86,258.03z M531.42,263.34v-5.31
			c0-0.87-0.71-1.62-1.62-1.62h-14.44c-0.87,0-1.62,0.75-1.62,1.62v5.31H531.42z"/>
		<path class="st1" d="M542.54,256.41v15.64c0,0.87,0.75,1.62,1.62,1.62h8.8v3.4h-8.8c-2.82,0-5.02-2.24-5.02-5.02v-26.93h3.4v7.88
			h10.41v3.4H542.54z"/>
		<path class="st1" d="M596.97,247.2h4.6v29.87h-3.36v-26.05l-13.65,16.22l-13.65-16.22v26.05h-3.36V247.2h4.61l12.41,14.77
			L596.97,247.2z"/>
		<path class="st1" d="M609.3,245.12v3.4h-3.4v-3.4H609.3z M605.9,253.01h3.4v24.06h-3.4V253.01z"/>
		<path class="st1" d="M638.88,258.36h-3.44v-0.33c0-0.87-0.75-1.62-1.62-1.62h-14.44c-0.87,0-1.62,0.75-1.62,1.62v3.69
			c0,0.87,0.75,1.62,1.62,1.62h14.44c2.82,0,5.06,2.24,5.06,5.02v3.69c0,2.78-2.24,5.02-5.06,5.02h-14.44
			c-2.78,0-5.02-2.24-5.02-5.02v-0.33h3.4v0.33c0,0.87,0.75,1.62,1.62,1.62h14.44c0.87,0,1.62-0.75,1.62-1.62v-3.69
			c0-0.87-0.75-1.62-1.62-1.62h-14.44c-2.78,0-5.02-2.24-5.02-5.02v-3.69c0-2.78,2.24-5.02,5.02-5.02h14.44
			c2.82,0,5.06,2.24,5.06,5.02V258.36z"/>
		<path class="st1" d="M667.35,258.36h-3.44v-0.33c0-0.87-0.75-1.62-1.62-1.62h-14.44c-0.87,0-1.62,0.75-1.62,1.62v3.69
			c0,0.87,0.75,1.62,1.62,1.62h14.44c2.82,0,5.06,2.24,5.06,5.02v3.69c0,2.78-2.24,5.02-5.06,5.02h-14.44
			c-2.78,0-5.02-2.24-5.02-5.02v-0.33h3.4v0.33c0,0.87,0.75,1.62,1.62,1.62h14.44c0.87,0,1.62-0.75,1.62-1.62v-3.69
			c0-0.87-0.75-1.62-1.62-1.62h-14.44c-2.78,0-5.02-2.24-5.02-5.02v-3.69c0-2.78,2.24-5.02,5.02-5.02h14.44
			c2.82,0,5.06,2.24,5.06,5.02V258.36z"/>
		<path class="st1" d="M674.86,245.12v3.4h-3.4v-3.4H674.86z M671.46,253.01h3.4v24.06h-3.4V253.01z"/>
		<path class="st1" d="M699.5,253.01c2.82,0,5.06,2.24,5.06,5.02v14.02c0,2.78-2.24,5.02-5.06,5.02h-14.44
			c-2.78,0-5.02-2.24-5.02-5.02v-14.02c0-2.78,2.24-5.02,5.02-5.02H699.5z M685.06,256.41c-0.87,0-1.62,0.75-1.62,1.62v14.02
			c0,0.87,0.75,1.62,1.62,1.62h14.44c0.91,0,1.62-0.75,1.62-1.62v-14.02c0-0.87-0.71-1.62-1.62-1.62H685.06z"/>
		<path class="st1" d="M732.78,258.03v19.04h-3.4v-19.04c0-0.87-0.75-1.62-1.62-1.62h-14.44c-0.91,0-1.66,0.75-1.66,1.62v19.04h-3.4
			v-24.06h19.5C730.54,253.01,732.78,255.25,732.78,258.03z"/>
	</g>
</g>
</svg>
